<?xml version="1.0" encoding="utf-8"?>
<!-- Generator: Adobe Illustrator 18.0.0, SVG Export Plug-In . SVG Version: 6.00 Build 0)  -->
<!DOCTYPE svg PUBLIC "-//W3C//DTD SVG 1.1//EN" "http://www.w3.org/Graphics/SVG/1.1/DTD/svg11.dtd">
<svg version="1.1" id="Layer_1" xmlns="http://www.w3.org/2000/svg" xmlns:xlink="http://www.w3.org/1999/xlink" x="0px" y="0px"
	 viewBox="0 0 32 32" enable-background="new 0 0 32 32" xml:space="preserve">
<g>
	<linearGradient id="SVGID_1_" gradientUnits="userSpaceOnUse" x1="1.3655" y1="15.8593" x2="30.6543" y2="15.8593">
		<stop  offset="0" style="stop-color:#4687C7"/>
		<stop  offset="1" style="stop-color:#00B1B5"/>
	</linearGradient>
	<circle fill="url(#SVGID_1_)" cx="16" cy="15.9" r="14.6"/>
	<g>
		<g>
			<g>
				
					<polyline fill="none" stroke="#FFFFFF" stroke-width="0.6102" stroke-linecap="round" stroke-linejoin="round" stroke-miterlimit="10" points="
					11.9,8.6 20.2,13.6 20.2,18.8 22.5,17.5 				"/>
				
					<polyline fill="none" stroke="#FFFFFF" stroke-width="0.6102" stroke-linecap="round" stroke-linejoin="round" stroke-miterlimit="10" points="
					15.6,13.4 9.7,9.7 7.4,11 9.8,12.4 				"/>
				
					<polyline fill="none" stroke="#FFFFFF" stroke-width="0.6102" stroke-linecap="round" stroke-linejoin="round" stroke-miterlimit="10" points="
					20.2,11.2 13.9,7.4 16.1,6.1 18,7.3 				"/>
				
					<line fill="none" stroke="#FFFFFF" stroke-width="0.6102" stroke-linecap="round" stroke-linejoin="round" stroke-miterlimit="10" x1="20.3" y1="8.6" x2="18.2" y2="9.9"/>
				
					<polyline fill="none" stroke="#FFFFFF" stroke-width="0.6102" stroke-linecap="round" stroke-linejoin="round" stroke-miterlimit="10" points="
					22.2,9.8 24.5,11.2 22.3,12.5 				"/>
				
					<polyline fill="none" stroke="#FFFFFF" stroke-width="0.6102" stroke-linecap="round" stroke-linejoin="round" stroke-miterlimit="10" points="
					11.9,13.5 16,15.9 18.2,14.7 				"/>
				
					<line fill="none" stroke="#FFFFFF" stroke-width="0.6102" stroke-linecap="round" stroke-linejoin="round" stroke-miterlimit="10" x1="16" y1="18.4" x2="18.2" y2="17.2"/>
				
					<polyline fill="none" stroke="#FFFFFF" stroke-width="0.6102" stroke-linecap="round" stroke-linejoin="round" stroke-miterlimit="10" points="
					22.1,14.7 24.4,13.4 24.4,21.1 20.4,23.4 20.4,20.9 				"/>
				
					<polyline fill="none" stroke="#FFFFFF" stroke-width="0.6102" stroke-linecap="round" stroke-linejoin="round" stroke-miterlimit="10" points="
					9.8,19.7 9.8,17.3 7.5,15.9 7.5,13.5 14,17.3 				"/>
				
					<polyline fill="none" stroke="#FFFFFF" stroke-width="0.6102" stroke-linecap="round" stroke-linejoin="round" stroke-miterlimit="10" points="
					11.9,16.1 11.9,18.6 16,20.9 18.2,19.7 				"/>
				
					<polyline fill="none" stroke="#FFFFFF" stroke-width="0.6102" stroke-linecap="round" stroke-linejoin="round" stroke-miterlimit="10" points="
					7.6,18.3 7.6,20.9 9.9,22.3 				"/>
				
					<polyline fill="none" stroke="#FFFFFF" stroke-width="0.6102" stroke-linecap="round" stroke-linejoin="round" stroke-miterlimit="10" points="
					11.7,23.4 16.1,25.8 18.2,24.6 				"/>
				
					<polyline fill="none" stroke="#FFFFFF" stroke-width="0.6102" stroke-linecap="round" stroke-linejoin="round" stroke-miterlimit="10" points="
					11.9,21 16.1,23.4 22.3,19.8 				"/>
			</g>
		</g>
	</g>
</g>
</svg>
